<svg xmlns="http://www.w3.org/2000/svg" width="729" height="836" viewBox="0 0 729 836"><defs><style type="text/css"/></defs><g transform="translate(-23.84300425477933 314.51674722498547) scale(1)"><g class="relationship"><g transform="translate(160.828240239903 -95.282032302755) rotate(3.030996862151817e-15)" stroke-width="5" stroke="#000000"><path d="M 59 0 L 453.40135408717845 0"/><polygon points="-24.8621506177483,0 -27.62461179749811,9.20820393249937 0,0 -27.62461179749811,-9.20820393249937" fill="#000000" transform="translate(478.26350470492673 0) rotate(0)" stroke="none"/></g><g transform="translate(417.0289172834922 -95.28203230275498) rotate(3.030996862151817e-15) translate(0 -13)"><g transform="translate(0 0)"><g transform="translate(-37.06666564941406 0)" fill="#ffffff" stroke="#000000" stroke-width="0"><rect x="0" y="0" width="74.13333129882812" height="26" rx="5" ry="5" stroke="none"/><text xml:space="preserve" x="5" y="17.5" stroke="none" text-anchor="left" font-family="sans-serif" font-size="16" font-weight="normal" fill="#000000">certifies</text></g></g></g></g><g class="relationship"><g transform="translate(160.828240239903 -95.282032302755) rotate(17.91156822389477)" stroke-width="5" stroke="#000000"><path d="M 59 0 L 453.40135408717833 0"/><polygon points="-24.8621506177483,0 -27.62461179749811,9.20820393249937 0,0 -27.62461179749811,-9.20820393249937" fill="#000000" transform="translate(478.2635047049266 0) rotate(0)" stroke="none"/></g><g transform="translate(404.6114669222726 -16.48783641291884) rotate(17.91156822389477) translate(0 -13)"><g transform="translate(0 0)"><g transform="translate(-37.06666564941406 0)" fill="#ffffff" stroke="#000000" stroke-width="0"><rect x="0" y="0" width="74.13333129882812" height="26" rx="5" ry="5" stroke="none"/><text xml:space="preserve" x="5" y="17.5" stroke="none" text-anchor="left" font-family="sans-serif" font-size="16" font-weight="normal" fill="#000000">certifies</text></g></g></g></g><g class="relationship"><g transform="translate(160.828240239903 -95.282032302755) rotate(-17.91156822389476)" stroke-width="5" stroke="#000000"><path d="M 59 0 L 453.40135408717833 0"/><polygon points="-24.8621506177483,0 -27.62461179749811,9.20820393249937 0,0 -27.62461179749811,-9.20820393249937" fill="#000000" transform="translate(478.2635047049266 0) rotate(0)" stroke="none"/></g><g transform="translate(404.6114669222726 -174.07622819259115) rotate(-17.91156822389476) translate(0 -13)"><g transform="translate(0 0)"><g transform="translate(-37.06666564941406 0)" fill="#ffffff" stroke="#000000" stroke-width="0"><rect x="0" y="0" width="74.13333129882812" height="26" rx="5" ry="5" stroke="none"/><text xml:space="preserve" x="5" y="17.5" stroke="none" text-anchor="left" font-family="sans-serif" font-size="16" font-weight="normal" fill="#000000">certifies</text></g></g></g></g><g class="relationship"><g transform="translate(160.828240239903 -95.282032302755) rotate(105.5612975289877)" stroke-width="5" stroke="#000000"><path d="M 59 0 L 225.4735812200975 0"/><polygon points="-24.8621506177483,0 -27.62461179749811,9.20820393249937 0,0 -27.62461179749811,-9.20820393249937" fill="#000000" transform="translate(250.3357318378458 0) rotate(0)" stroke="none"/></g><g transform="translate(122.67049634005198 41.74092629732863) rotate(285.56129752898767) translate(0 -13)"><g transform="translate(0 0)"><g transform="translate(-37.06666564941406 0)" fill="#ffffff" stroke="#000000" stroke-width="0"><rect x="0" y="0" width="74.13333129882812" height="26" rx="5" ry="5" stroke="none"/><text xml:space="preserve" x="5" y="17.5" stroke="none" text-anchor="left" font-family="sans-serif" font-size="16" font-weight="normal" fill="#000000">certifies</text></g></g></g></g><g class="relationship"><g transform="translate(77.84300425477933 202.71468848482175) rotate(90)" stroke-width="5" stroke="#000000"><path d="M 59 0 L 180.47627538696827 0"/><polygon points="-24.8621506177483,0 -27.62461179749811,9.20820393249937 0,0 -27.62461179749811,-9.20820393249937" fill="#000000" transform="translate(205.33842600471655 0) rotate(0)" stroke="none"/></g><g transform="translate(77.84300425477934 322.4528261783059) rotate(270) translate(0 -13)"><g transform="translate(0 0)"><g transform="translate(-37.06666564941406 0)" fill="#ffffff" stroke="#000000" stroke-width="0"><rect x="0" y="0" width="74.13333129882812" height="26" rx="5" ry="5" stroke="none"/><text xml:space="preserve" x="5" y="17.5" stroke="none" text-anchor="left" font-family="sans-serif" font-size="16" font-weight="normal" fill="#000000">certifies</text></g></g></g></g><g class="relationship"><g transform="translate(160.828240239903 -95.282032302755) rotate(74.4387024710123)" stroke-width="5" stroke="#000000"><path d="M 59 0 L 225.4735812200975 0"/><polygon points="-24.8621506177483,0 -27.62461179749811,9.20820393249937 0,0 -27.62461179749811,-9.20820393249937" fill="#000000" transform="translate(250.3357318378458 0) rotate(0)" stroke="none"/></g><g transform="translate(198.98598413975407 41.7409262973286) rotate(74.4387024710123) translate(0 -13)"><g transform="translate(0 0)"><g transform="translate(-37.06666564941406 0)" fill="#ffffff" stroke="#000000" stroke-width="0"><rect x="0" y="0" width="74.13333129882812" height="26" rx="5" ry="5" stroke="none"/><text xml:space="preserve" x="5" y="17.5" stroke="none" text-anchor="left" font-family="sans-serif" font-size="16" font-weight="normal" fill="#000000">certifies</text></g></g></g></g><g class="relationship"><g transform="translate(243.8134762250267 202.71468848482175) rotate(90)" stroke-width="5" stroke="#000000"><path d="M 59 0 L 180.47627538696827 0"/><polygon points="-24.8621506177483,0 -27.62461179749811,9.20820393249937 0,0 -27.62461179749811,-9.20820393249937" fill="#000000" transform="translate(205.33842600471655 0) rotate(0)" stroke="none"/></g><g transform="translate(243.8134762250267 322.4528261783059) rotate(270) translate(0 -13)"><g transform="translate(0 0)"><g transform="translate(-37.06666564941406 0)" fill="#ffffff" stroke="#000000" stroke-width="0"><rect x="0" y="0" width="74.13333129882812" height="26" rx="5" ry="5" stroke="none"/><text xml:space="preserve" x="5" y="17.5" stroke="none" text-anchor="left" font-family="sans-serif" font-size="16" font-weight="normal" fill="#000000">certifies</text></g></g></g></g><g class="relationship"><g transform="translate(243.8134762250267 467.0531144895383) rotate(-30.00000000000001)" stroke-width="5" stroke="#000000"><path d="M 59 0 L 229.01293979070456 0"/><polygon points="-24.8621506177483,0 -27.62461179749811,9.20820393249937 0,0 -27.62461179749811,-9.20820393249937" fill="#000000" transform="translate(253.87509040845288 0) rotate(0)" stroke="none"/></g><g transform="translate(368.52673746372074 395.04987954186214) rotate(-30.00000000000001) translate(0 -13)"><g transform="translate(0 0)"><g transform="translate(-47.266666412353516 0)" fill="#ffffff" stroke="#000000" stroke-width="0"><rect x="0" y="0" width="94.53333282470703" height="26" rx="5" ry="5" stroke="none"/><text xml:space="preserve" x="5" y="17.5" stroke="none" text-anchor="left" font-family="sans-serif" font-size="16" font-weight="normal" fill="#000000">privatekey</text></g></g></g></g><g class="relationship"><g transform="translate(672.0518336629667 69.95268261947552) rotate(123.16584790034763)" stroke-width="5" stroke="#000000"><path d="M 59 0 L 203.63707748019502 0"/><polygon points="-24.8621506177483,0 -27.62461179749811,9.20820393249937 0,0 -27.62461179749811,-9.20820393249937" fill="#000000" transform="translate(228.49922809794333 0) rotate(0)" stroke="none"/></g><g transform="translate(600.2121414420836 179.87819029828168) rotate(303.16584790034767) translate(0 -13)"><g transform="translate(0 0)"><g transform="translate(-43.06666564941406 0)" fill="#ffffff" stroke="#000000" stroke-width="0"><rect x="0" y="0" width="86.13333129882812" height="26" rx="5" ry="5" stroke="none"/><text xml:space="preserve" x="5" y="17.5" stroke="none" text-anchor="left" font-family="sans-serif" font-size="16" font-weight="normal" fill="#000000">publickey</text></g></g></g></g><g class="relationship"><g transform="translate(514.7712527300998 310.61556928531184) rotate(44.84603289087206)" stroke-width="5" stroke="#000000"><path d="M 59 0 L 137.97086470707768 0"/><polygon points="-24.8621506177483,0 -27.62461179749811,9.20820393249937 0,0 -27.62461179749811,-9.20820393249937" fill="#000000" transform="translate(162.833015324826 0) rotate(0)" stroke="none"/></g></g><g class="node"><g fill="#009ce0" stroke="#000000" stroke-width="4"><circle cx="160.828240239903" cy="-95.282032302755" r="52"/></g><g transform="translate(160.828240239903 -95.282032302755)"><g transform="scale(0.265625734375) translate(0 0)"><g transform="translate(0 0)"><g font-family="sans-serif" font-size="50" font-weight="normal" fill="#000000" text-anchor="middle"><text xml:space="preserve" x="0" y="14.5" stroke="none">Organization</text><text xml:space="preserve" x="0" y="74.5" stroke="none" text-anchor="middle">Certify Key</text><text xml:space="preserve" x="0" y="134.5" stroke="none" text-anchor="middle">(Root)</text></g></g></g></g></g><g class="node"><g fill="#73d8ff" stroke="#000000" stroke-width="4"><circle cx="698.0917449448298" cy="-95.28203230275497" r="52"/></g><g transform="translate(698.0917449448298 -95.28203230275497)"><g transform="scale(0.27539134960937495) translate(0 0)"><g transform="translate(0 0)"><g font-family="sans-serif" font-size="50" font-weight="normal" fill="#000000" text-anchor="middle"><text xml:space="preserve" x="0" y="14.5" stroke="none">Organization</text><text xml:space="preserve" x="0" y="74.5" stroke="none" text-anchor="middle">Signing</text><text xml:space="preserve" x="0" y="134.5" stroke="none" text-anchor="middle">Key</text></g></g></g></g></g><g class="node"><g fill="#73d8ff" stroke="#000000" stroke-width="4"><circle cx="672.0518336629667" cy="69.95268261947552" r="52"/></g><g transform="translate(672.0518336629667 69.95268261947552)"><g transform="scale(0.27539134960937495) translate(0 0)"><g transform="translate(0 0)"><g font-family="sans-serif" font-size="50" font-weight="normal" fill="#000000" text-anchor="middle"><text xml:space="preserve" x="0" y="14.5" stroke="none">Organization</text><text xml:space="preserve" x="0" y="74.5" stroke="none" text-anchor="middle">Encryption</text><text xml:space="preserve" x="0" y="134.5" stroke="none" text-anchor="middle">Key</text></g></g></g></g></g><g class="node"><g fill="#73d8ff" stroke="#000000" stroke-width="4"><circle cx="672.0518336629667" cy="-260.51674722498547" r="52"/></g><g transform="translate(672.0518336629667 -260.51674722498547)"><g transform="scale(0.251953873046875) translate(0 0)"><g transform="translate(0 0)"><g font-family="sans-serif" font-size="50" font-weight="normal" fill="#000000" text-anchor="middle"><text xml:space="preserve" x="0" y="-15.5" stroke="none">Organization</text><text xml:space="preserve" x="0" y="44.5" stroke="none" text-anchor="middle">Authorization</text><text xml:space="preserve" x="0" y="104.5" stroke="none" text-anchor="middle">Key</text></g></g></g></g></g><g class="node"><g fill="#f44e3b" stroke="#000000" stroke-width="4"><circle cx="77.84300425477933" cy="202.71468848482175" r="52"/></g><g transform="translate(77.84300425477933 202.71468848482175)"><g transform="scale(0.36523500976562495) translate(0 0)"><g transform="translate(0 0)"><g font-family="sans-serif" font-size="50" font-weight="normal" fill="#000000" text-anchor="middle"><text xml:space="preserve" x="0" y="-45.5" stroke="none">Person</text><text xml:space="preserve" x="0" y="14.5" stroke="none" text-anchor="middle">A Certify</text><text xml:space="preserve" x="0" y="74.5" stroke="none" text-anchor="middle">Key</text></g></g></g></g></g><g class="node"><g fill="#aea1ff" stroke="#000000" stroke-width="4"><circle cx="77.84300425477933" cy="467.0531144895383" r="52"/></g><g transform="translate(77.84300425477933 467.0531144895383)"><g transform="scale(0.27539134960937495) translate(0 0)"><g transform="translate(0 0)"><g font-family="sans-serif" font-size="50" font-weight="normal" fill="#000000" text-anchor="middle"><text xml:space="preserve" x="0" y="-75.5" stroke="none">Person A</text><text xml:space="preserve" x="0" y="-15.5" stroke="none" text-anchor="middle">Subordinate</text><text xml:space="preserve" x="0" y="44.5" stroke="none" text-anchor="middle">Keys (Sign,</text><text xml:space="preserve" x="0" y="104.5" stroke="none" text-anchor="middle">Encrypt)</text></g></g></g></g></g><g class="node"><g fill="#f44e3b" stroke="#000000" stroke-width="4"><circle cx="243.8134762250267" cy="202.71468848482175" r="52"/></g><g transform="translate(243.8134762250267 202.71468848482175)"><g transform="scale(0.36523500976562495) translate(0 0)"><g transform="translate(0 0)"><g font-family="sans-serif" font-size="50" font-weight="normal" fill="#000000" text-anchor="middle"><text xml:space="preserve" x="0" y="-45.5" stroke="none">Person</text><text xml:space="preserve" x="0" y="14.5" stroke="none" text-anchor="middle">B Certify</text><text xml:space="preserve" x="0" y="74.5" stroke="none" text-anchor="middle">Key</text></g></g></g></g></g><g class="node"><g fill="#aea1ff" stroke="#000000" stroke-width="4"><circle cx="243.8134762250267" cy="467.0531144895383" r="52"/></g><g transform="translate(243.8134762250267 467.0531144895383)"><g transform="scale(0.27539134960937495) translate(0 0)"><g transform="translate(0 0)"><g font-family="sans-serif" font-size="50" font-weight="normal" fill="#000000" text-anchor="middle"><text xml:space="preserve" x="0" y="-75.5" stroke="none">Person B</text><text xml:space="preserve" x="0" y="-15.5" stroke="none" text-anchor="middle">Subordinate</text><text xml:space="preserve" x="0" y="44.5" stroke="none" text-anchor="middle">Keys (Sign,</text><text xml:space="preserve" x="0" y="104.5" stroke="none" text-anchor="middle">Encrypt)</text></g></g></g></g></g><g class="node"><g fill="#a4dd00" stroke="#000000" stroke-width="4"><circle cx="514.7712527300998" cy="310.61556928531184" r="52"/></g><g transform="translate(514.7712527300998 310.61556928531184)"><g transform="scale(0.32617254882812496) translate(0 0)"><g transform="translate(0 0)"><g font-family="sans-serif" font-size="50" font-weight="normal" fill="#000000" text-anchor="middle"><text xml:space="preserve" x="0" y="14.5" stroke="none">encryption</text></g></g></g></g></g><g class="node"><g fill="#a4dd00" stroke="#000000" stroke-width="4"><circle cx="672.0518336629667" cy="467.0531144895383" r="52"/></g><g transform="translate(672.0518336629667 467.0531144895383)"><g transform="scale(0.32031317968749995) translate(0 0)"><g transform="translate(0 0)"><g font-family="sans-serif" font-size="50" font-weight="normal" fill="#000000" text-anchor="middle"><text xml:space="preserve" x="0" y="-15.5" stroke="none">encrypted</text><text xml:space="preserve" x="0" y="44.5" stroke="none" text-anchor="middle">message</text></g></g></g></g></g></g></svg>